<?xml version="1.0" standalone="no"?>
<!DOCTYPE svg PUBLIC "-//W3C//DTD SVG 20010904//EN"
 "http://www.w3.org/TR/2001/REC-SVG-20010904/DTD/svg10.dtd">
<svg version="1.0" xmlns="http://www.w3.org/2000/svg"
 width="1280.000000pt" height="1280.000000pt" viewBox="0 0 1280.000000 1280.000000"
 preserveAspectRatio="xMidYMid meet">
<metadata>
Created by potrace 1.15, written by Peter Selinger 2001-2017
</metadata>
<g transform="translate(0.000000,1280.000000) scale(0.100000,-0.100000)"
fill="#000000" stroke="none">
<path d="M7505 11781 c-251 -72 -431 -271 -540 -596 -67 -198 -91 -461 -61
-663 38 -256 141 -464 301 -611 73 -66 125 -96 200 -115 304 -80 634 171 775
590 55 161 74 288 74 484 0 196 -15 296 -64 432 -134 366 -410 559 -685 479z"/>
<path d="M9295 11211 c-165 -43 -287 -114 -427 -249 -114 -110 -202 -226 -271
-361 -170 -327 -209 -642 -113 -905 91 -252 295 -395 522 -366 458 60 840 474
953 1037 74 363 -50 699 -303 823 -63 31 -76 34 -180 37 -83 2 -129 -2 -181
-16z"/>
<path d="M2413 11191 c-78 -3 -145 -10 -149 -14 -23 -22 -42 -1893 -32 -3102
4 -478 11 -1081 16 -1338 l9 -469 26 -25 c26 -26 26 -26 269 -34 926 -29 2444
-36 2700 -12 l66 6 8 106 c4 58 4 359 2 669 -6 609 -5 593 -60 623 -17 9 -191
14 -671 18 l-649 6 -3 1030 c-3 987 -19 2230 -31 2402 -9 129 0 124 -301 134
-278 9 -983 9 -1200 0z"/>
<path d="M5935 10550 c-233 -41 -399 -233 -481 -558 -106 -420 11 -872 296
-1138 123 -115 227 -164 349 -164 187 0 345 97 455 279 156 260 197 605 110
934 -60 224 -229 481 -380 577 -92 58 -243 88 -349 70z"/>
<path d="M9925 9336 c-196 -45 -362 -144 -526 -313 -109 -112 -167 -195 -244
-347 -89 -175 -109 -257 -109 -431 -1 -156 12 -215 67 -320 93 -174 262 -257
493 -242 391 26 798 388 942 837 33 103 42 164 42 274 0 243 -100 431 -275
517 -63 31 -73 33 -198 36 -87 2 -152 -2 -192 -11z"/>
<path d="M7310 9005 c-189 -32 -389 -102 -530 -186 -335 -199 -739 -583 -959
-914 -106 -158 -178 -285 -201 -354 -88 -264 37 -582 273 -695 133 -64 222
-80 462 -80 116 -1 307 3 425 8 243 10 333 2 520 -45 194 -49 310 -114 525
-293 66 -56 174 -147 240 -202 143 -120 195 -156 279 -194 71 -32 193 -60 263
-60 133 1 277 57 360 141 64 64 104 137 139 254 39 131 44 355 15 585 -32 250
-160 725 -268 1000 -104 264 -261 529 -403 682 -173 188 -404 311 -660 353
-115 18 -372 18 -480 0z"/>
<path d="M2180 5933 c-58 -2 -108 -7 -112 -11 -17 -17 186 -1200 332 -1932
164 -823 625 -2933 651 -2981 26 -49 37 -51 417 -61 373 -10 1772 -2 1831 10
l34 7 59 260 c421 1860 676 3128 879 4372 47 287 46 303 -8 324 -35 14 -1181
24 -1398 12 l-149 -8 -13 -65 c-110 -532 -262 -1495 -413 -2600 -65 -480 -70
-513 -76 -507 -3 2 -36 231 -75 508 -173 1245 -390 2558 -433 2623 -31 47 -48
49 -756 51 -366 1 -712 0 -770 -2z"/>
<path d="M6788 5933 l-176 -3 -6 -63 c-8 -94 -24 -944 -25 -1362 0 -203 -4
-455 -7 -560 -6 -195 10 -1806 25 -2521 6 -260 13 -409 20 -423 6 -11 21 -26
33 -32 26 -14 757 -34 1623 -45 512 -6 1581 8 1594 22 3 3 5 305 5 670 -2 722
0 695 -56 726 -17 9 -224 14 -806 22 -780 9 -782 9 -788 30 -2 12 -3 107 -2
211 l3 190 531 3 531 2 7 167 c4 92 4 362 0 601 -7 432 -7 435 -30 461 l-22
26 -284 6 c-155 4 -385 7 -510 8 l-228 1 0 213 0 214 778 6 c427 4 794 10 814
13 l37 6 6 72 c4 39 5 341 3 671 -2 450 -6 605 -15 621 -28 49 11 47 -1478 49
-770 1 -1480 0 -1577 -2z"/>
</g>
</svg>
